<svg width="76" height="52" viewBox="0 0 76 52" fill="none" xmlns="http://www.w3.org/2000/svg">
<g clip-path="url(#clip0_142_341)">
<path d="M1.88744 21.4212L21.3647 1.90049C23.8837 -0.625035 27.9743 -0.625035 30.5005 1.90049C33.0194 4.42602 33.0194 8.52731 30.5005 11.06L26.0008 15.5715H65.594C71.3424 15.5715 76 20.2412 76 26.0045C76 31.7679 71.3424 36.4376 65.594 36.4376H26.0008L30.5005 40.9491C33.0194 43.4746 33.0266 47.5759 30.5005 50.1086C29.2374 51.375 27.5868 52.0081 25.9362 52.0081C24.2855 52.0081 22.6278 51.375 21.3719 50.1086L1.90179 30.5879C0.68895 29.3719 0.00717163 27.7242 0.00717163 26.0117C0.00717163 24.2993 0.68895 22.6444 1.90179 21.4356L1.88744 21.4212ZM65.594 32.5019C69.1751 32.5019 72.0744 29.595 72.0744 26.0045C72.0744 22.4141 69.1751 19.5072 65.594 19.5072C62.0128 19.5072 59.1135 22.4141 59.1135 26.0045C59.1135 29.595 62.0128 32.5019 65.594 32.5019Z" fill="#7AC05C"/>
</g>
<defs>
<clipPath id="clip0_142_341">
<rect width="76" height="52" fill="white" transform="matrix(-1 0 0 1 76 0)"/>
</clipPath>
</defs>
</svg>
