<svg width="28" height="19" viewBox="0 0 28 19" fill="none" xmlns="http://www.w3.org/2000/svg">
<g clip-path="url(#clip0_2030_18)">
<path d="M27.3046 7.82685L20.1288 0.694289C19.2008 -0.2285 17.6937 -0.2285 16.763 0.694289C15.8349 1.61708 15.8349 3.11563 16.763 4.04104L18.4208 5.68945H3.83381C1.71596 5.68945 0 7.39569 0 9.50154C0 11.6074 1.71596 13.3136 3.83381 13.3136H18.4208L16.763 14.962C15.8349 15.8848 15.8323 17.3834 16.763 18.3088C17.2283 18.7715 17.8365 19.0029 18.4446 19.0029C19.0527 19.0029 19.6635 18.7715 20.1262 18.3088L27.2993 11.1762C27.7462 10.7319 27.9974 10.1299 27.9974 9.50417C27.9974 8.87846 27.7462 8.27378 27.2993 7.83211L27.3046 7.82685ZM3.83381 11.8756C2.51445 11.8756 1.44627 10.8134 1.44627 9.50154C1.44627 8.18965 2.51445 7.12753 3.83381 7.12753C5.15316 7.12753 6.22134 8.18965 6.22134 9.50154C6.22134 10.8134 5.15316 11.8756 3.83381 11.8756Z" fill="#272525"/>
</g>
<defs>
<clipPath id="clip0_2030_18">
<rect width="28" height="19" fill="white"/>
</clipPath>
</defs>
</svg>
