<svg width="76" height="52" viewBox="0 0 76 52" fill="none" xmlns="http://www.w3.org/2000/svg">
<g clip-path="url(#clip0_140_320)">
<path d="M1.88744 21.4212L21.3647 1.90056C23.8837 -0.624974 27.9743 -0.624974 30.5005 1.90056C33.0194 4.42608 33.0194 8.52737 30.5005 11.0601L26.0008 15.5715H65.594C71.3424 15.5715 76 20.2412 76 26.0046C76 31.768 71.3424 36.4377 65.594 36.4377H26.0008L30.5005 40.9491C33.0194 43.4747 33.0266 47.5759 30.5005 50.1087C29.2374 51.375 27.5868 52.0082 25.9362 52.0082C24.2855 52.0082 22.6278 51.375 21.3719 50.1087L1.90179 30.588C0.68895 29.372 0.00717163 27.7243 0.00717163 26.0118C0.00717163 24.2993 0.68895 22.6444 1.90179 21.4356L1.88744 21.4212ZM65.594 32.5019C69.1751 32.5019 72.0744 29.595 72.0744 26.0046C72.0744 22.4142 69.1751 19.5073 65.594 19.5073C62.0128 19.5073 59.1135 22.4142 59.1135 26.0046C59.1135 29.595 62.0128 32.5019 65.594 32.5019Z" fill="#7AC05C"/>
</g>
<defs>
<clipPath id="clip0_140_320">
<rect width="76" height="52" fill="white" transform="matrix(-1 0 0 1 76 0)"/>
</clipPath>
</defs>
</svg>
