<svg width="76" height="52" viewBox="0 0 76 52" fill="none" xmlns="http://www.w3.org/2000/svg">
<g clip-path="url(#clip0_142_338)">
<path d="M74.1126 21.4212L54.6353 1.90049C52.1163 -0.625035 48.0257 -0.625035 45.4995 1.90049C42.9806 4.42602 42.9806 8.52731 45.4995 11.06L49.9992 15.5715H10.406C4.6576 15.5715 0 20.2412 0 26.0045C0 31.7679 4.6576 36.4376 10.406 36.4376H49.9992L45.4995 40.9491C42.9806 43.4746 42.9734 47.5759 45.4995 50.1086C46.7626 51.375 48.4132 52.0081 50.0638 52.0081C51.7145 52.0081 53.3722 51.375 54.6281 50.1086L74.0982 30.5879C75.3111 29.3719 75.9928 27.7242 75.9928 26.0117C75.9928 24.2993 75.3111 22.6444 74.0982 21.4356L74.1126 21.4212ZM10.406 32.5019C6.82493 32.5019 3.92559 29.595 3.92559 26.0045C3.92559 22.4141 6.82493 19.5072 10.406 19.5072C13.9872 19.5072 16.8865 22.4141 16.8865 26.0045C16.8865 29.595 13.9872 32.5019 10.406 32.5019Z" fill="#7AC05C"/>
</g>
<defs>
<clipPath id="clip0_142_338">
<rect width="76" height="52" fill="white"/>
</clipPath>
</defs>
</svg>
