<svg width="678" height="381" viewBox="0 0 678 381" fill="none" xmlns="http://www.w3.org/2000/svg">
<path d="M19 38C29.4934 38 38 29.4934 38 19C38 8.50659 29.4934 0 19 0C8.50659 0 0 8.50659 0 19C0 29.4934 8.50659 38 19 38Z" fill="black"/>
<path d="M28.4134 16.4174V21.5833C28.4134 21.9874 28.0862 22.3153 27.6814 22.3153H22.3147V27.682C22.3147 28.0862 21.9875 28.414 21.5827 28.414H16.4168C16.0126 28.414 15.6848 28.0868 15.6848 27.682V22.3153H10.3181C9.91389 22.3153 9.58606 21.9881 9.58606 21.5833V16.4174C9.58606 16.0132 9.91327 15.6854 10.3181 15.6854H15.6848V10.3187C15.6848 9.9145 16.012 9.58667 16.4168 9.58667H21.5827C21.9868 9.58667 22.3147 9.91388 22.3147 10.3187V15.6854H27.6814C28.0856 15.6854 28.4134 16.0126 28.4134 16.4174Z" fill="white"/>
</svg>
