<svg width="609" height="614" viewBox="0 0 609 614" fill="none" xmlns="http://www.w3.org/2000/svg">
<path d="M19 38C29.4934 38 38 29.4934 38 19C38 8.50659 29.4934 0 19 0C8.50659 0 0 8.50659 0 19C0 29.4934 8.50659 38 19 38Z" fill="black"/>
<path d="M28.4133 16.4174V21.5833C28.4133 21.9874 28.0861 22.3153 27.6813 22.3153H22.3145V27.682C22.3145 28.0862 21.9873 28.414 21.5825 28.414H16.4167C16.0125 28.414 15.6847 28.0868 15.6847 27.682V22.3153H10.3179C9.91377 22.3153 9.58594 21.9881 9.58594 21.5833V16.4174C9.58594 16.0132 9.91315 15.6854 10.3179 15.6854H15.6847V10.3187C15.6847 9.9145 16.0119 9.58667 16.4167 9.58667H21.5825C21.9867 9.58667 22.3145 9.91388 22.3145 10.3187V15.6854H27.6813C28.0854 15.6854 28.4133 16.0126 28.4133 16.4174Z" fill="white"/>
</svg>
